HIERARCHY
ROOT Hips
{
	OFFSET 0.000000 0.000000 0.000000
	CHANNELS 6 Xposition Yposition Zposition Zrotation Yrotation Xrotation 
	JOINT LHipJoint
	{
		OFFSET 0.000000 0.000000 0.000000
		CHANNELS 3 Zrotation Yrotation Xrotation
		JOINT LeftUpLeg
		{
			OFFSET 1.363060 -1.794630 0.839290
			CHANNELS 3 Zrotation Yrotation Xrotation
			JOINT LeftLeg
			{
				OFFSET 2.448110 -6.726130 0.000000
				CHANNELS 3 Zrotation Yrotation Xrotation
				JOINT LeftFoot
				{
					OFFSET 2.562200 -7.039590 0.000000
					CHANNELS 3 Zrotation Yrotation Xrotation
					JOINT LeftToeBase
					{
						OFFSET 0.157640 -0.433110 2.322550
						CHANNELS 3 Zrotation Yrotation Xrotation
						End Site
						{
							OFFSET 0.000000 0.000000 0.000000
						}
					}
				}
			}
		}
	}
	JOINT RHipJoint
	{
		OFFSET 0.000000 0.000000 0.000000
		CHANNELS 3 Zrotation Yrotation Xrotation
		JOINT RightUpLeg
		{
			OFFSET -1.305520 -1.794630 0.839290
			CHANNELS 3 Zrotation Yrotation Xrotation
			JOINT RightLeg
			{
				OFFSET -2.542530 -6.985550 0.000000
				CHANNELS 3 Zrotation Yrotation Xrotation
				JOINT RightFoot
				{
					OFFSET -2.568260 -7.056230 0.000000
					CHANNELS 3 Zrotation Yrotation Xrotation
					JOINT RightToeBase
					{
						OFFSET -0.164730 -0.452590 2.363150
						CHANNELS 3 Zrotation Yrotation Xrotation
						End Site
						{
							OFFSET 0.000000 0.000000 0.000000
						}
					}
				}
			}
		}
	}
	JOINT LowerBack
	{
		OFFSET 0.000000 0.000000 0.000000
		CHANNELS 3 Zrotation Yrotation Xrotation
		JOINT Spine
		{
			OFFSET 0.028270 2.035590 -0.193380
			CHANNELS 3 Zrotation Yrotation Xrotation
			JOINT Spine1
			{
				OFFSET 0.056720 2.048850 -0.042750
				CHANNELS 3 Zrotation Yrotation Xrotation
				JOINT Neck
				{
					OFFSET 0.000000 0.000000 0.000000
					CHANNELS 3 Zrotation Yrotation Xrotation
					JOINT Neck1
					{
						OFFSET -0.054170 1.746240 0.172020
						CHANNELS 3 Zrotation Yrotation Xrotation
						JOINT Head
						{
							OFFSET 0.104070 1.761360 -0.123970
							CHANNELS 3 Zrotation Yrotation Xrotation
							End Site
							{
								OFFSET 0.000000 0.000000 0.000000
							}
						}
					}
				}
				JOINT LeftShoulder
				{
					OFFSET 0.000000 0.000000 0.000000
					CHANNELS 3 Zrotation Yrotation Xrotation
					JOINT LeftArm
					{
						OFFSET 3.362410 1.200890 -0.311210
						CHANNELS 3 Zrotation Yrotation Xrotation
						JOINT LeftForeArm
						{
							OFFSET 4.983000 -0.000000 -0.000000
							CHANNELS 3 Zrotation Yrotation Xrotation
							JOINT LeftHand
							{
								OFFSET 3.483560 -0.000000 -0.000000
								CHANNELS 3 Zrotation Yrotation Xrotation
								JOINT LeftFingerBase
								{
									OFFSET 0.000000 0.000000 0.000000
									CHANNELS 3 Zrotation Yrotation Xrotation
									JOINT LeftHandIndex1
									{
										OFFSET 0.715260 -0.000000 -0.000000
										CHANNELS 3 Zrotation Yrotation Xrotation
										End Site
										{
											OFFSET 0.000000 0.000000 0.000000
										}
									}
								}
								JOINT LThumb
								{
									OFFSET 0.000000 0.000000 0.000000
									CHANNELS 3 Zrotation Yrotation Xrotation
									End Site
									{
										OFFSET 0.000000 0.000000 0.000000
									}
								}
							}
						}
					}
				}
				JOINT RightShoulder
				{
					OFFSET 0.000000 0.000000 0.000000
					CHANNELS 3 Zrotation Yrotation Xrotation
					JOINT RightArm
					{
						OFFSET -3.136600 1.374050 -0.404650
						CHANNELS 3 Zrotation Yrotation Xrotation
						JOINT RightForeArm
						{
							OFFSET -5.241900 -0.000000 -0.000000
							CHANNELS 3 Zrotation Yrotation Xrotation
							JOINT RightHand
							{
								OFFSET -3.444170 -0.000000 -0.000000
								CHANNELS 3 Zrotation Yrotation Xrotation
								JOINT RightFingerBase
								{
									OFFSET 0.000000 0.000000 0.000000
									CHANNELS 3 Zrotation Yrotation Xrotation
									JOINT RightHandIndex1
									{
										OFFSET -0.622530 -0.000000 -0.000000
										CHANNELS 3 Zrotation Yrotation Xrotation
										End Site
										{
											OFFSET 0.000000 0.000000 0.000000
										}
									}
								}
								JOINT RThumb
								{
									OFFSET 0.000000 0.000000 0.000000
									CHANNELS 3 Zrotation Yrotation Xrotation
									End Site
									{
										OFFSET 0.000000 0.000000 0.000000
									}
								}
							}
						}
					}
				}
			}
		}
	}
}
MOTION
Frames: 9
Frame Time: 0.008333
9.358985 17.214468 4.272784 29.053040 -58.093880 -15.619524 -2.077537 3.096896 4.281623 -17.496593 -10.382583 9.631396 1.731765 9.705701 29.875182 2.170049 5.571218 36.387288 0.036400 -1.231400 -3.385800 -1.949710 -1.133021 -0.302595 30.699476 4.136845 -40.772348 -5.648713 -15.382847 45.220381 3.462019 -15.422991 5.085034 -1.212500 -6.985200 19.671500 -7.692608 -2.183193 9.613664 -0.155062 -4.070190 -2.584196 2.120403 -1.883421 -4.414064 -10.563291 -7.246051 -17.207159 6.384591 -7.228331 7.262053 4.153500 -3.467400 9.557400 -2.952297 2.961166 -2.542870 -86.535256 16.136870 47.358491 124.194211 -59.367664 -91.582263 -0.011006 -1.310812 -31.990383 12.136847 9.225950 2.340800 -7.125000 0.000000 0.000000 -12.443500 40.256700 1.481400 -0.395441 -1.781056 -1.684159 82.149281 -23.331402 42.890766 -122.482667 57.034700 -91.817439 0.985531 -0.733764 -15.830631 -6.348133 18.789305 -2.406400 7.125000 0.000000 0.000000 13.671100 -10.527900 11.277400 
9.134676 17.168296 4.485861 29.769340 -59.206919 -16.375766 -1.920550 2.961331 4.111266 -17.728650 -9.556880 8.693236 2.333399 10.456961 32.585442 2.076556 4.803581 35.302886 0.079500 -1.819300 -5.006600 -1.928560 -1.137472 -0.251856 31.635296 3.280311 -39.743542 -5.667147 -15.311417 45.327893 3.618386 -15.600668 3.326531 -1.112800 -6.701700 18.834700 -7.320884 -1.972223 9.523706 -0.034684 -3.725085 -2.564732 2.337819 -1.700286 -4.306099 -10.325939 -6.862247 -17.263383 5.944895 -6.743856 7.065736 3.943400 -3.274100 9.339900 -2.883524 2.944936 -2.506446 -87.167100 16.018529 48.129145 122.751127 -59.851173 -90.580818 -0.091704 -1.292152 -30.125175 12.996654 8.172901 2.247300 -7.125000 0.000000 0.000000 -11.457700 39.241300 1.651200 -0.319868 -1.812450 -1.715321 81.773680 -22.876867 42.151136 -122.500027 57.052458 -91.837622 1.008820 -0.714894 -16.513036 -6.529274 18.839424 -2.479500 7.125000 0.000000 0.000000 13.545200 -10.467500 11.184300 
8.905272 17.118796 4.696755 30.673712 -60.341354 -17.364022 -1.758050 2.848285 3.940816 -17.800475 -8.385000 7.589131 2.986925 11.193391 35.269659 1.984175 4.374728 34.446064 0.131900 -2.341100 -6.449400 -1.914704 -1.144683 -0.208910 32.327385 2.591139 -38.538234 -5.752037 -15.285934 45.628965 4.010671 -16.561495 0.722847 -0.762200 -5.575400 15.557300 -6.969513 -1.822908 9.398261 0.057458 -3.456367 -2.490969 2.499070 -1.573004 -3.950918 -10.419424 -6.771678 -17.740102 5.814647 -6.534219 7.206720 3.916500 -3.191300 9.468300 -2.842789 2.981527 -2.466063 -88.393519 15.987816 49.025315 121.696844 -60.201710 -89.818648 -0.210955 -1.363939 -29.350270 15.509138 8.082374 2.679200 -7.125000 0.000000 0.000000 -9.188600 39.368900 1.287700 -0.275223 -1.841077 -1.745891 81.434153 -22.087156 41.702173 -122.395146 57.113760 -91.756278 1.040385 -0.704445 -16.865466 -6.867591 19.026297 -2.628800 7.125000 0.000000 0.000000 13.310600 -10.254700 11.038400 
8.670149 17.074704 4.906193 31.630501 -61.310147 -18.372654 -1.610022 2.743915 3.756026 -17.939296 -7.861118 6.525873 3.710461 11.943346 37.963634 1.779428 4.631451 33.533508 0.151400 -2.507000 -6.909100 -1.893655 -1.155003 -0.143855 32.558854 2.161103 -37.347940 -5.761369 -15.234354 45.835351 3.718168 -15.398072 -0.552494 -0.777500 -5.629900 15.714400 -6.569138 -1.826732 9.366714 0.168528 -3.402592 -2.481137 2.702572 -1.534382 -3.883627 -10.508945 -6.509721 -17.691895 5.411307 -6.131832 7.134846 3.789100 -3.057700 9.329000 -2.774692 2.987467 -2.426376 -89.670117 16.249365 49.707948 122.012141 -60.114431 -89.951342 -0.362996 -1.557783 -32.282732 20.282317 9.036015 3.958400 -7.125000 0.000000 0.000000 -4.953000 40.822600 0.511700 -0.227522 -1.861596 -1.773531 80.848224 -21.323168 41.670845 -122.179906 57.201626 -91.613997 1.043383 -0.689323 -17.266003 -6.804578 18.966025 -2.598700 7.125000 0.000000 0.000000 13.351000 -10.326200 11.054000 
8.437417 17.035187 5.102840 32.640388 -62.054341 -19.271471 -1.475470 2.631874 3.553305 -18.114520 -7.873216 5.296449 4.511208 12.701640 40.678189 1.440174 5.594946 32.491229 0.140500 -2.416200 -6.657300 -1.867021 -1.165028 -0.062552 32.319324 2.172252 -36.281166 -5.769434 -15.189967 45.981800 3.562920 -14.756584 -1.983184 -0.690100 -5.310700 14.797000 -6.235960 -1.805545 9.364005 0.264817 -3.336079 -2.521787 2.874352 -1.475798 -4.015280 -10.429013 -6.313001 -17.463666 4.854481 -5.891908 7.143728 3.520800 -3.014500 9.201100 -2.726877 2.961387 -2.415588 -90.521397 16.457260 48.848514 120.779683 -60.453815 -89.192293 -0.162980 -1.432127 -29.959591 15.681103 9.121898 3.034300 -7.125000 0.000000 0.000000 -9.240400 40.523000 1.030000 -0.159879 -1.874610 -1.801784 80.468432 -20.547058 41.606717 -121.749288 57.346696 -91.329494 1.052145 -0.664813 -17.603493 -6.825159 18.844713 -2.591900 7.125000 0.000000 0.000000 13.333300 -10.458500 11.001500 
8.205725 17.003574 5.286384 33.224405 -62.796359 -19.629196 -1.335069 2.513096 3.333925 -17.995014 -8.006741 3.758024 5.381029 13.456231 43.452217 1.016418 6.934339 31.324267 0.150800 -2.502300 -6.896100 -1.843192 -1.180034 0.024175 32.184349 2.560546 -35.204613 -5.793926 -15.156128 46.129936 3.553502 -14.674076 -3.451945 -0.495600 -4.513400 12.525800 -5.796682 -1.764379 9.277356 0.350560 -3.219511 -2.558087 2.996999 -1.398927 -4.135604 -10.518598 -6.346837 -17.070499 4.774771 -5.946004 6.984145 3.497600 -3.056400 9.033800 -2.710123 2.967259 -2.404677 -90.948494 16.668671 48.455995 119.730518 -60.732859 -88.550810 -0.014153 -1.298359 -28.164771 11.925353 8.537455 2.143600 -7.125000 0.000000 0.000000 -12.548000 39.582900 1.706500 -0.121552 -1.859002 -1.802125 80.367439 -19.611027 41.462249 -121.139749 57.540399 -90.908914 1.090295 -0.631129 -17.849340 -7.287595 18.842445 -2.762600 7.125000 0.000000 0.000000 13.012000 -10.439900 10.726500 
7.975696 16.971961 5.471072 34.450579 -63.599359 -20.703111 -1.169321 2.404272 3.114846 -18.060516 -7.800828 2.133373 6.324930 14.194505 46.333360 0.442830 8.612306 29.630345 0.077700 -1.797900 -4.947500 -1.812133 -1.182738 0.102341 31.746244 2.913667 -33.925430 -5.835751 -15.135705 46.388447 3.313022 -13.866060 -4.834717 -0.494000 -4.506200 12.505500 -5.656987 -1.625464 9.361506 0.381576 -3.021899 -2.563870 3.172702 -1.280897 -4.335932 -11.166761 -6.628634 -16.176962 5.355676 -6.233491 6.359676 3.915700 -3.152100 8.633300 -2.751715 3.030730 -2.377772 -91.137202 16.895349 48.345059 119.028080 -60.911150 -88.122009 0.101060 -1.226145 -27.940362 9.568467 8.411129 1.684100 -7.125000 0.000000 0.000000 -14.636800 39.254600 2.125500 -0.147219 -1.783086 -1.749711 80.473276 -18.531103 41.232381 -120.376909 57.774532 -90.377624 1.117829 -0.613185 -17.956031 -7.510128 18.926556 -2.859800 7.125000 0.000000 0.000000 12.850600 -10.345800 10.611400 
7.746604 16.932964 5.650145 36.033137 -64.569039 -22.570537 -0.970433 2.328625 2.931187 -18.083242 -7.068915 0.748369 7.262015 14.869746 49.277291 -0.067247 9.755806 27.711212 0.034000 -1.190400 -3.272800 -1.779400 -1.199232 0.171056 31.224632 3.108060 -32.181685 -5.888254 -15.105631 46.690153 2.898900 -12.529622 -6.111586 -0.668400 -5.228400 14.561100 -5.664296 -1.348556 9.946440 0.388918 -2.694593 -2.532522 3.321624 -1.098459 -4.637523 -11.516139 -6.659611 -15.616084 5.704633 -6.236563 6.029264 4.176500 -3.131500 8.404200 -2.774380 3.053248 -2.370026 -91.095850 17.356177 48.580050 118.811723 -60.971044 -87.954661 0.094289 -1.286747 -28.504098 10.410266 9.082368 1.972500 -7.125000 0.000000 0.000000 -14.052400 40.029600 1.761800 -0.142694 -1.711048 -1.712970 80.602797 -17.419796 41.042561 -119.547698 58.010096 -89.809680 1.137031 -0.603852 -17.698782 -7.625670 19.000742 -2.917600 7.125000 0.000000 0.000000 12.760600 -10.269900 10.553300 
7.524791 16.882529 5.812371 36.014789 -65.869432 -23.134914 -0.757493 2.266517 2.756909 -17.096565 -6.193257 -0.776301 8.184080 15.499221 52.268405 -0.389396 10.167379 26.028649 0.075400 -1.771700 -4.875200 -1.767465 -1.257526 0.247289 31.729598 3.294389 -30.302401 -5.912352 -15.034208 46.823630 2.662554 -11.831312 -7.241655 -0.596900 -4.945900 13.754300 -4.962383 -1.133341 10.767747 0.469741 -2.352553 -2.491813 3.286232 -0.924904 -4.949650 -11.168953 -6.389176 -15.674666 5.598582 -5.960404 6.105194 4.078700 -2.999900 8.422400 -2.744499 3.002743 -2.387206 -90.968143 17.882622 48.426418 118.557319 -61.046404 -87.758357 0.064017 -1.355732 -28.915169 11.650194 9.646197 2.344200 -7.125000 0.000000 0.000000 -13.073700 40.739700 1.400600 -0.057510 -1.676923 -1.716925 80.656262 -16.061838 41.189020 -118.384477 58.315080 -89.013005 1.177335 -0.573932 -17.307186 -8.082345 19.021021 -3.093700 7.125000 0.000000 0.000000 12.435600 -10.233200 10.280100 
